<?xml version="1.0" encoding="UTF-8"?>
<svg version="1.1" xmlns="http://www.w3.org/2000/svg" width="512" height="512">
<path d="M0 0 C168.96 0 337.92 0 512 0 C512 168.96 512 337.92 512 512 C343.04 512 174.08 512 0 512 C0 343.04 0 174.08 0 0 Z " fill="#FEFEFE" transform="translate(0,0)"/>
<path d="M0 0 C9.96735455 0.6644903 19.77638179 1.45824345 29.671875 2.671875 C31.03590163 2.8364082 32.39996201 3.00066175 33.76405334 3.16465759 C38.09347323 3.68686324 42.42177642 4.21798478 46.75 4.75 C48.23798268 4.93237167 49.72596894 5.11471408 51.21395874 5.29702759 C59.88647414 6.36080152 68.55733571 7.43739602 77.22674561 8.52618408 C79.58328504 8.82209996 81.93991838 9.1172701 84.29669189 9.41131592 C89.43658505 10.05334337 94.5739428 10.70927637 99.70690918 11.40466309 C101.72422428 11.67564222 103.74343596 11.93238755 105.76269531 12.18847656 C125.20379585 14.92246301 141.53579 24.26963757 153.6875 39.6875 C158.07621357 45.76889368 161.27345732 52.02634276 164 59 C164.3403125 59.82242188 164.680625 60.64484375 165.03125 61.4921875 C171.59237299 80.50729395 165.8483364 104.17960643 163.29150391 123.64215088 C162.71141199 128.08551409 162.15230957 132.53156641 161.58947754 136.97714233 C160.74192907 143.65356063 159.86864849 150.32614265 159 157 C138.87 157 118.74 157 98 157 C100.23792487 145.81037567 100.23792487 145.81037567 101.7265625 141.44921875 C108.35576459 121.56787795 108.35576459 121.56787795 103.19140625 101.75390625 C97.95422725 95.17242462 90.48895031 92.04537139 82.60546875 89.7421875 C81.67872849 89.45930878 80.75198822 89.17643005 79.79716492 88.88497925 C76.53766029 87.90086232 73.2704506 86.94710241 70 86 C69.05710491 85.72637383 69.05710491 85.72637383 68.09516144 85.44721985 C57.94621264 82.50426426 47.77831727 79.6294508 37.60559082 76.7699585 C32.23976846 75.26075847 26.87564088 73.74554205 21.51127625 72.23117065 C18.67152443 71.42952521 15.83134707 70.62941594 12.99079895 69.83059692 C11.72064438 69.47287201 10.45048981 69.11514709 9.1418457 68.74658203 C8.02461624 68.43238312 6.90738678 68.1181842 5.75630188 67.79446411 C3.82508396 67.23781851 1.90670168 66.63556723 0 66 C0 44.22 0 22.44 0 0 Z " fill="#5CC67A" transform="translate(263,92)"/>
<path d="M0 0 C0.86044922 -0.00773437 1.72089844 -0.01546875 2.60742188 -0.0234375 C7.26522363 -0.00960587 11.68708338 0.35013426 16.2734375 1.17456055 C22.41806816 2.23151202 28.56854455 3.01349889 34.76171875 3.72265625 C36.99675272 3.9849585 39.23177854 4.2473302 41.46679688 4.50976562 C44.94734664 4.91491815 48.42805664 5.31863221 51.90893555 5.72094727 C55.29780053 6.11370512 58.68602609 6.51164664 62.07421875 6.91015625 C63.65054329 7.08986717 63.65054329 7.08986717 65.25871277 7.27320862 C66.70205742 7.44359901 66.70205742 7.44359901 68.17456055 7.61743164 C69.02439011 7.71576797 69.87421967 7.81410431 70.74980164 7.91542053 C72.6875 8.25 72.6875 8.25 73.6875 9.25 C73.7815067 11.21369153 73.80493381 13.18079199 73.80102539 15.14672852 C73.80094986 16.40796036 73.80087433 17.6691922 73.80079651 18.96864319 C73.7956891 20.35539794 73.79047309 21.74215229 73.78515625 23.12890625 C73.78329201 24.53995209 73.78186814 25.95099857 73.78086853 27.36204529 C73.77704379 31.08240535 73.7672139 34.8027266 73.75616455 38.52307129 C73.74594948 42.31680781 73.74137071 46.11055058 73.73632812 49.90429688 C73.72559158 57.35288231 73.7085157 64.80143572 73.6875 72.25 C68.36750427 71.24122335 63.1392763 70.22188678 57.98828125 68.5234375 C38.69169262 61.99615611 38.69169262 61.99615611 19.125 65.3125 C3.19466962 74.86014834 0.93905156 98.49949184 -3.6875 115.0625 C-4.32767858 117.34062029 -4.96830116 119.61861585 -5.609375 121.89648438 C-8.19373067 131.08843864 -10.77052693 140.2823338 -13.31347656 149.48583984 C-13.63482574 150.64476242 -13.95617493 151.803685 -14.28726196 152.99772644 C-14.90220518 155.21643892 -15.51443303 157.43590621 -16.12362671 159.65620422 C-16.39687775 160.64066025 -16.67012878 161.62511627 -16.95166016 162.6394043 C-17.31090073 163.94303169 -17.31090073 163.94303169 -17.67739868 165.272995 C-18.3125 167.25 -18.3125 167.25 -19.3125 168.25 C-21.27619153 168.3440067 -23.24329199 168.36743381 -25.20922852 168.36352539 C-26.47046036 168.36344986 -27.7316922 168.36337433 -29.03114319 168.36329651 C-30.41789794 168.3581891 -31.80465229 168.35297309 -33.19140625 168.34765625 C-34.60245209 168.34579201 -36.01349857 168.34436814 -37.42454529 168.34336853 C-41.14490535 168.33954379 -44.8652266 168.3297139 -48.58557129 168.31866455 C-52.37930781 168.30844948 -56.17305058 168.30387071 -59.96679688 168.29882812 C-67.41538231 168.28809158 -74.86393572 168.2710157 -82.3125 168.25 C-81.82158979 156.3169546 -80.58103033 144.59110603 -78.95840454 132.76196289 C-78.26992922 127.74155394 -77.6007961 122.71858704 -76.93359375 117.6953125 C-76.79700851 116.66839294 -76.66042328 115.64147339 -76.5196991 114.58343506 C-75.58053725 107.45622812 -74.71901145 100.32280053 -73.91015625 93.1796875 C-73.80027374 92.21141022 -73.69039124 91.24313293 -73.57717896 90.24551392 C-73.05747604 85.64345198 -72.5479818 81.04047409 -72.04980469 76.43603516 C-69.17387851 50.33549828 -69.17387851 50.33549828 -63.5625 39.9375 C-63.21179443 39.26581787 -62.86108887 38.59413574 -62.49975586 37.90209961 C-59.63120587 32.54760244 -56.40543347 27.75485611 -52.3125 23.25 C-51.65894531 22.50492188 -51.00539063 21.75984375 -50.33203125 20.9921875 C-37.1232662 6.79697552 -19.14024177 -0.16975824 0 0 Z " fill="#E74060" transform="translate(174.3125,80.75)"/>
<path d="M0 0 C20.13 0 40.26 0 61 0 C60.33286365 4.66995444 59.67006639 8.55297071 58.37109375 12.984375 C58.05849609 14.08523438 57.74589844 15.18609375 57.42382812 16.3203125 C56.77012412 18.5933902 56.10874968 20.86427701 55.43945312 23.1328125 C52.83343406 32.3914641 50.85275781 41.42178563 55.5625 50.3125 C63.92801943 65.23165217 81.42133393 67.23121323 96.81547165 71.57239532 C99.33825653 72.28390616 101.85976101 72.99980966 104.38101196 73.71673584 C109.71127268 75.23160503 115.04302808 76.74116667 120.375 78.25 C126.60800169 80.01397576 132.84036564 81.78014467 139.07118607 83.55181122 C141.55723032 84.25747645 144.04437464 84.95916585 146.53158569 85.66070557 C148.03982938 86.08904047 149.54802122 86.51755799 151.05615234 86.94628906 C151.74899826 87.14055481 152.44184418 87.33482056 153.15568542 87.53497314 C157.88615687 88.88615687 157.88615687 88.88615687 159 90 C159.09413687 92.05556661 159.11742998 94.11440181 159.11352539 96.17211914 C159.11367142 96.81600082 159.11381744 97.45988251 159.1139679 98.12327576 C159.11326885 100.26060303 159.10547691 102.39784413 159.09765625 104.53515625 C159.09579204 106.01346285 159.09436815 107.49177007 159.09336853 108.97007751 C159.08954359 112.86798802 159.07971352 116.76586149 159.06866455 120.66375732 C159.05844992 124.63846333 159.0538708 128.61317529 159.04882812 132.58789062 C159.03809122 140.391944 159.02101509 148.19596682 159 156 C138.80004543 153.85345127 118.65674028 151.35044232 98.51275635 148.73852539 C95.38589131 148.33372453 92.25870556 147.93143306 89.13151073 147.52918911 C86.06412777 147.13447665 82.99688235 146.73870407 79.92968178 146.34257698 C78.49270557 146.15702099 77.05570383 145.97166266 75.61867332 145.78652763 C33.83250095 140.39765329 33.83250095 140.39765329 18 128 C17.30132812 127.46632813 16.60265625 126.93265625 15.8828125 126.3828125 C3.2883635 116.14063413 -5.32319834 99.9148432 -8 84 C-9.29935867 66.9027291 -6.53609083 49.86859044 -4.29150391 32.95874023 C-3.71244905 28.5712115 -3.15266638 24.18118338 -2.58947754 19.79159546 C-1.74069194 13.19241925 -0.86820135 6.59677987 0 0 Z " fill="#7FCBFA" transform="translate(89,264)"/>
<path d="M0 0 C20.79 0 41.58 0 63 0 C61.85014851 18.39762391 61.85014851 18.39762391 60.84838867 26.33081055 C60.73762497 27.23885437 60.62686127 28.14689819 60.51274109 29.0824585 C60.15305532 32.01788673 59.78610142 34.95233872 59.41796875 37.88671875 C59.15984483 39.9626197 58.90181547 42.03853241 58.64387512 44.11445618 C58.10532837 48.43720068 57.56257062 52.75939334 57.01733398 57.08129883 C56.32356995 62.58678361 55.64518939 68.09404703 54.97053051 73.60190105 C54.44396411 77.87972811 53.90678881 82.15617579 53.36675453 86.43232155 C53.11222505 88.46138246 52.86144971 90.49091836 52.61470604 92.52094078 C49.72791888 116.19416608 43.6329114 135.62331807 24.95703125 151.83203125 C19.09339333 156.1309996 12.65485404 159.13030532 6 162 C4.97390625 162.45761719 3.9478125 162.91523438 2.890625 163.38671875 C-17.18543435 170.95507446 -42.42196959 164.78849095 -63 162 C-72.9 160.68 -82.8 159.36 -93 158 C-93 136.88 -93 115.76 -93 94 C-75.66869651 98.33282587 -75.66869651 98.33282587 -69.09130859 100.48681641 C-57.86748391 104.14538533 -48.27526053 106.27234472 -37.1171875 101.12109375 C-30.18105815 97.44827249 -26.82620408 91.9532587 -24.14624023 84.68432617 C-23.41780807 82.28032241 -22.75864353 79.86818659 -22.125 77.4375 C-21.61030499 75.55443306 -21.09464508 73.67162965 -20.578125 71.7890625 C-20.18657227 70.34321777 -20.18657227 70.34321777 -19.78710938 68.86816406 C-18.5422867 64.33212907 -17.20567814 59.82393968 -15.875 55.3125 C-10.48020567 36.90496138 -5.26177616 18.44577709 0 0 Z " fill="#995FCA" transform="translate(356,264)"/>
</svg>
