<svg width="316" height="150" viewBox="0 0 316 150" fill="none" xmlns="http://www.w3.org/2000/svg">
<path d="M181.602 115.375C163.977 115.375 153.727 107.625 153.102 93.5H169.977C170.727 99.375 173.602 102.75 181.477 102.75C188.477 102.75 191.727 100.125 191.727 95.625C191.727 91.125 187.852 89.25 178.477 87.875C161.102 85.25 154.352 80.25 154.352 67.5C154.352 53.875 166.852 47.125 180.227 47.125C194.727 47.125 205.602 52.375 207.227 67.375H190.602C189.602 62 186.602 59.5 180.352 59.5C174.477 59.5 171.102 62.25 171.102 66.25C171.102 70.375 174.227 72 183.727 73.375C200.102 75.75 209.102 79.875 209.102 93.875C209.102 108 198.852 115.375 181.602 115.375ZM224.971 39.75C219.221 39.75 214.721 35.5 214.721 29.875C214.721 24.25 219.221 20 224.971 20C230.846 20 235.346 24.25 235.346 29.875C235.346 35.5 230.846 39.75 224.971 39.75ZM216.096 114V48.625H234.096V114H216.096ZM255.127 39.75C249.377 39.75 244.877 35.5 244.877 29.875C244.877 24.25 249.377 20 255.127 20C261.002 20 265.502 24.25 265.502 29.875C265.502 35.5 261.002 39.75 255.127 39.75ZM246.252 114V48.625H264.252V114H246.252ZM299.783 115.25C286.033 115.25 278.658 108.25 278.658 94.625V61.5H270.283V48.625H278.658V34.5H296.658V48.625H310.408V61.5H296.658V93C296.658 98.25 299.283 100.75 303.908 100.75C306.658 100.75 308.658 100.375 310.783 99.5V113.5C308.283 114.375 304.658 115.25 299.783 115.25Z" fill="black"/>
<mask id="mask0_2861_1093" style="mask-type:alpha" maskUnits="userSpaceOnUse" x="0" y="13" width="120" height="120">
<path fill-rule="evenodd" clip-rule="evenodd" d="M57.276 15.9788L35.8729 13.3149C22.1715 11.6095 9.68189 21.3342 7.97654 35.0356L3.51978 70.8427H25.354L33.7793 41.4603C35.3016 36.1514 40.8394 33.0818 46.1483 34.6041L57.276 37.7949L57.276 15.9788ZM57.276 106.676L27.8974 98.2523C22.5885 96.73 19.5189 91.1922 21.0412 85.8833L23.903 75.9029H2.88995L0.254466 97.0773C-1.45089 110.779 8.2738 123.268 21.9752 124.974L57.276 129.367L57.276 106.676ZM62.3363 129.997L62.3363 108.127L74.0025 111.473C79.3114 112.995 84.8492 109.925 86.3715 104.616L94.605 75.9029H116.279L111.913 110.975C110.208 124.676 97.7183 134.401 84.0169 132.696L62.3363 129.997ZM62.3363 39.2459L62.3363 16.6087L97.9146 21.037C111.616 22.7423 121.341 35.232 119.635 48.9334L116.908 70.8427H96.056L99.1096 60.1935C100.632 54.8846 97.5623 49.3468 92.2534 47.8245L62.3363 39.2459Z" fill="#D9D9D9"/>
</mask>
<g mask="url(#mask0_2861_1093)">
<path fill-rule="evenodd" clip-rule="evenodd" d="M57.276 15.9788L35.8729 13.3149C22.1715 11.6095 9.68189 21.3342 7.97654 35.0356L3.51978 70.8427H25.354L33.7793 41.4603C35.3016 36.1514 40.8394 33.0818 46.1483 34.6041L57.276 37.7949L57.276 15.9788ZM57.276 106.676L27.8974 98.2523C22.5885 96.73 19.5189 91.1922 21.0412 85.8833L23.903 75.9029H2.88995L0.254466 97.0773C-1.45089 110.779 8.2738 123.268 21.9752 124.974L57.276 129.367L57.276 106.676ZM62.3363 129.997L62.3363 108.127L74.0025 111.473C79.3114 112.995 84.8492 109.925 86.3715 104.616L94.605 75.9029H116.279L111.913 110.975C110.208 124.676 97.7183 134.401 84.0169 132.696L62.3363 129.997ZM62.3363 39.2459L62.3363 16.6087L97.9146 21.037C111.616 22.7423 121.341 35.232 119.635 48.9334L116.908 70.8427H96.056L99.1096 60.1935C100.632 54.8846 97.5623 49.3468 92.2534 47.8245L62.3363 39.2459Z" fill="#D9D9D9"/>
<path fill-rule="evenodd" clip-rule="evenodd" d="M57.276 15.9788L35.8729 13.3149C22.1715 11.6095 9.68189 21.3342 7.97654 35.0356L3.51978 70.8427H25.354L33.7793 41.4603C35.3016 36.1514 40.8394 33.0818 46.1483 34.6041L57.276 37.7949L57.276 15.9788ZM57.276 106.676L27.8974 98.2523C22.5885 96.73 19.5189 91.1922 21.0412 85.8833L23.903 75.9029H2.88995L0.254466 97.0773C-1.45089 110.779 8.2738 123.268 21.9752 124.974L57.276 129.367L57.276 106.676ZM62.3363 129.997L62.3363 108.127L74.0025 111.473C79.3114 112.995 84.8492 109.925 86.3715 104.616L94.605 75.9029H116.279L111.913 110.975C110.208 124.676 97.7183 134.401 84.0169 132.696L62.3363 129.997ZM62.3363 39.2459L62.3363 16.6087L97.9146 21.037C111.616 22.7423 121.341 35.232 119.635 48.9334L116.908 70.8427H96.056L99.1096 60.1935C100.632 54.8846 97.5623 49.3468 92.2534 47.8245L62.3363 39.2459Z" fill="#D9D9D9"/>
<path fill-rule="evenodd" clip-rule="evenodd" d="M57.276 15.9788L35.8729 13.3149C22.1715 11.6095 9.68189 21.3342 7.97654 35.0356L3.51978 70.8427H25.354L33.7793 41.4603C35.3016 36.1514 40.8394 33.0818 46.1483 34.6041L57.276 37.7949L57.276 15.9788ZM57.276 106.676L27.8974 98.2523C22.5885 96.73 19.5189 91.1922 21.0412 85.8833L23.903 75.9029H2.88995L0.254466 97.0773C-1.45089 110.779 8.2738 123.268 21.9752 124.974L57.276 129.367L57.276 106.676ZM62.3363 129.997L62.3363 108.127L74.0025 111.473C79.3114 112.995 84.8492 109.925 86.3715 104.616L94.605 75.9029H116.279L111.913 110.975C110.208 124.676 97.7183 134.401 84.0169 132.696L62.3363 129.997ZM62.3363 39.2459L62.3363 16.6087L97.9146 21.037C111.616 22.7423 121.341 35.232 119.635 48.9334L116.908 70.8427H96.056L99.1096 60.1935C100.632 54.8846 97.5623 49.3468 92.2534 47.8245L62.3363 39.2459Z" fill="#D9D9D9"/>
<rect x="0.0950928" y="13.1558" width="57.1808" height="57.6868" fill="#E74060"/>
<rect x="0.0950928" y="75.9028" width="57.1808" height="53.6386" fill="#7FCBFA"/>
<rect x="62.3362" y="13.1558" width="57.6868" height="57.6868" fill="#5BC67A"/>
<rect x="62.3362" y="75.9028" width="57.6868" height="57.1808" fill="#995FCA"/>
</g>
</svg>
